<?xml version="1.0" encoding="UTF-8"?>
<!DOCTYPE svg PUBLIC "-//W3C//DTD SVG 1.1//EN" "http://www.w3.org/Graphics/SVG/1.1/DTD/svg11.dtd">
<!-- Creator: CorelDRAW 2020 (64-Bit) -->
<svg xmlns="http://www.w3.org/2000/svg" xml:space="preserve" width="210mm" height="210mm" version="1.1" style="shape-rendering:geometricPrecision; text-rendering:geometricPrecision; image-rendering:optimizeQuality; fill-rule:evenodd; clip-rule:evenodd"
viewBox="0 0 21000 21000"
 xmlns:xlink="http://www.w3.org/1999/xlink"
 xmlns:xodm="http://www.corel.com/coreldraw/odm/2003">
 <defs>
  <style type="text/css">
   <![CDATA[
    .str0 {stroke:#373435;stroke-width:3000;stroke-miterlimit:22.9256}
    .fil0 {fill:none}
   ]]>
  </style>
 </defs>
 <g id="Capa_x0020_1">
  <metadata id="CorelCorpID_0Corel-Layer"/>
  <path class="fil0 str0" d="M8084.46 1820.66l4836.08 0c240.37,0 437.03,196.66 437.03,437.03l0 5273.11 5273.11 0c240.37,0 437.03,196.66 437.03,437.03l0 4836.08c0,240.37 -196.66,437.03 -437.03,437.03l-5273.11 0 0 5273.11c0,240.37 -196.66,437.03 -437.03,437.03l-4836.08 0c-240.37,0 -437.03,-196.66 -437.03,-437.03l0 -5273.11 -5273.11 0c-240.37,0 -437.03,-196.66 -437.03,-437.03l0 -4836.08c0,-240.37 196.66,-437.03 437.03,-437.03l5273.11 0 0 -5273.11c0,-240.37 196.66,-437.03 437.03,-437.03z"/>
 </g>
</svg>
