<?xml version="1.0" encoding="UTF-8"?>
<!DOCTYPE svg PUBLIC "-//W3C//DTD SVG 1.1//EN" "http://www.w3.org/Graphics/SVG/1.1/DTD/svg11.dtd">
<!-- Creator: CorelDRAW 2020 (64-Bit) -->
<svg xmlns="http://www.w3.org/2000/svg" xml:space="preserve" width="7mm" height="7mm" version="1.1" style="shape-rendering:geometricPrecision; text-rendering:geometricPrecision; image-rendering:optimizeQuality; fill-rule:evenodd; clip-rule:evenodd"
viewBox="0 0 700 700"
 xmlns:xlink="http://www.w3.org/1999/xlink"
 xmlns:xodm="http://www.corel.com/coreldraw/odm/2003">
 <defs>
  <style type="text/css">
   <![CDATA[
    .str0 {stroke:#FEFEFE;stroke-width:30;stroke-miterlimit:22.9256}
    .fil1 {fill:none}
    .fil0 {fill:#FEFEFE}
   ]]>
  </style>
 </defs>
 <g id="Capa_x0020_1">
  <metadata id="CorelCorpID_0Corel-Layer"/>
  <path class="fil0" d="M192.58 362.41c0,-6.01 4.87,-10.87 10.88,-10.87l282.76 0c6.01,0 10.88,4.86 10.88,10.87 0,6.01 -4.87,10.88 -10.88,10.88l-282.77 0c-6,0 -10.87,-4.87 -10.87,-10.88l0 0zm152.26 54.38c6.01,0 10.87,4.86 10.87,10.87l0 126.01 46.68 -46.71c2.04,-2.04 4.82,-3.19 7.7,-3.19 6.02,0 10.9,4.88 10.9,10.9 0,2.88 -1.15,5.66 -3.19,7.7l-65.26 65.26c-2.04,2.03 -4.82,3.18 -7.7,3.18 -2.88,0 -5.66,-1.15 -7.7,-3.2l-65.26 -65.26c-2.03,-2.02 -3.18,-4.8 -3.18,-7.68 0,-6.02 4.88,-10.9 10.9,-10.9 2.88,0 5.66,1.15 7.7,3.19l46.66 46.71 0 -126.01c0.01,-6.01 4.88,-10.87 10.88,-10.87z"/>
  <path class="fil0 str0" d="M346.9 208.69c82.3,0 149.03,66.99 149.03,149.61l-0.05 3.65 -297.97 0 -0.05 -3.65c0,-82.62 66.73,-149.61 149.04,-149.61z"/>
  <line class="fil1 str0" x1="156.81" y1="361.95" x2="75.19" y2= "362.41" />
  <line class="fil1 str0" x1="220.18" y1="220.25" x2="165.43" y2= "159.72" />
  <line class="fil1 str0" x1="348.86" y1="171.87" x2="349.25" y2= "90.25" />
  <line class="fil1 str0" x1="538.93" y1="361.95" x2="620.55" y2= "362.41" />
  <line class="fil1 str0" x1="475.56" y1="220.25" x2="530.31" y2= "159.72" />
 </g>
</svg>
