<?xml version="1.0" encoding="UTF-8"?>
<!DOCTYPE svg PUBLIC "-//W3C//DTD SVG 1.1//EN" "http://www.w3.org/Graphics/SVG/1.1/DTD/svg11.dtd">
<!-- Creator: CorelDRAW 2020 (64-Bit) -->
<svg xmlns="http://www.w3.org/2000/svg" xml:space="preserve" width="7mm" height="7mm" version="1.1" style="shape-rendering:geometricPrecision; text-rendering:geometricPrecision; image-rendering:optimizeQuality; fill-rule:evenodd; clip-rule:evenodd"
viewBox="0 0 700 700"
 xmlns:xlink="http://www.w3.org/1999/xlink"
 xmlns:xodm="http://www.corel.com/coreldraw/odm/2003">
 <defs>
  <style type="text/css">
   <![CDATA[
    .fil0 {fill:black;fill-rule:nonzero}
   ]]>
  </style>
 </defs>
 <g id="Capa_x0020_1">
  <metadata id="CorelCorpID_0Corel-Layer"/>
  <g id="_2809114657824">
   <path class="fil0" d="M329.34 109.74c3.31,4 5.11,9.03 5.11,14.2 0,3.77 -0.96,7.48 -2.76,10.77 -16.75,30.77 -25.55,65.31 -25.55,100.36 0,0.09 0,0.24 0,0.35 0,117.05 95.4,211.81 212.99,211.81 15.33,0 30.27,-1.6 44.62,-4.65 1.59,-0.36 3.21,-0.54 4.84,-0.54 7.45,0 14.43,3.62 18.72,9.72 2.59,3.61 3.98,7.96 3.98,12.41 0,4.94 -1.72,9.75 -4.88,13.58 -46.11,56.66 -115.39,89.59 -188.45,89.59 -0.12,0 -0.27,0 -0.39,0 -134.17,0.01 -242.86,-108.09 -242.86,-241.27 0,-100.25 61.54,-186.22 149.15,-222.67 2.69,-1.15 5.6,-1.73 8.52,-1.73 6.59,0 12.83,2.97 16.98,8.07l-0.02 0zm-33.23 30.07c-68.6,36.8 -111.5,108.37 -111.56,186.27 0,116.99 95.44,211.77 213.03,211.77 0.1,-0.03 0.26,-0.03 0.37,-0.03 56.72,0 111.15,-22.69 151.12,-62.93 -9.82,1.22 -19.8,1.84 -29.96,1.84 -134.18,0 -242.83,-108.11 -242.83,-241.29 0,-33.97 7.03,-66.3 19.82,-95.64l0.01 0.01z"/>
  </g>
 </g>
</svg>
